<svg width="24" height="24" viewBox="0 0 130 121" fill="none" xmlns="http://www.w3.org/2000/svg">
<path fill-rule="evenodd" clip-rule="evenodd" d="M65 116L115.743 65.6636H115.707C115.713 65.6577 115.72 65.6518 115.726 65.6458C115.732 65.6402 115.738 65.6346 115.743 65.6289C116.592 64.8195 117.401 63.9691 118.169 63.0808C123.67 56.7108 127 48.3948 127 39.297C127 19.2507 110.833 3 90.8901 3C81.6062 3 73.1407 6.52169 66.7434 12.3086C66.1437 12.8511 65.5623 13.4134 65 13.9946C64.4377 13.4134 63.8562 12.8511 63.2566 12.3086C56.8593 6.52169 48.3938 3 39.1099 3C19.167 3 3 19.2507 3 39.297C3 48.3948 6.32984 56.7108 11.8314 63.0808C12.5986 63.9691 13.4081 64.8195 14.2566 65.6289C14.2625 65.6346 14.2684 65.6402 14.2743 65.6458C14.2805 65.6517 14.2867 65.6577 14.293 65.6636H14.2566L65 116ZM20.5282 68.2465H20.7557L16.0737 63.7925C9.61199 57.6453 5.58333 48.9477 5.58333 39.297C5.58333 20.6641 20.6068 5.58286 39.1099 5.58286C48.5333 5.58286 57.0473 9.48923 63.1431 15.7903L65 17.7097L66.8568 15.7903C72.9527 9.48923 81.4667 5.58286 90.8901 5.58286C109.393 5.58286 124.417 20.6641 124.417 39.297C124.417 48.9477 120.388 57.6453 113.926 63.7925L109.244 68.2465H109.472L65 112.362L20.5282 68.2465Z" fill="#900A93" stroke="#FEFEFE" stroke-width="6"/>
</svg>

