<svg width="24" height="24" viewBox="0 0 137 123" fill="none" xmlns="http://www.w3.org/2000/svg">
<path fill-rule="evenodd" clip-rule="evenodd" d="M107.841 80.2589L108.298 79.1484C110.834 72.9963 112.234 66.2572 112.234 59.186C112.234 30.1341 88.5854 6.58286 59.4136 6.58286C30.2419 6.58286 6.59351 30.1341 6.59351 59.186C6.59351 88.238 30.2419 111.789 59.4136 111.789C69.896 111.789 79.6578 108.751 87.8691 103.511L88.8467 102.888L124.935 112.912L107.841 80.2589ZM130 117L89.2683 105.686C80.6519 111.184 70.4066 114.372 59.4136 114.372C28.8095 114.372 4 89.6645 4 59.186C4 28.7076 28.8095 4 59.4136 4C90.0177 4 114.827 28.7076 114.827 59.186C114.827 66.5994 113.359 73.6713 110.698 80.1293L130 117Z" fill="white" stroke="white" stroke-width="7"/>
</svg>



